<svg width="35" height="63" viewBox="0 0 35 63" fill="none" xmlns="http://www.w3.org/2000/svg">
<path d="M33.7672 16.0389C33.1058 15.1285 32.0606 14.593 30.937 14.524C31.0282 13.408 30.685 12.3489 29.9634 11.5332C29.0248 10.4723 27.5761 10.0191 26.164 10.2685C26.0128 9.09439 25.4311 8.06991 24.5127 7.37161C23.3118 6.45861 21.7117 6.27207 20.2771 6.81458C19.8289 5.6812 18.9945 4.74567 17.9067 4.21485C16.5365 3.54633 14.9628 3.58116 13.5848 4.26173C12.4984 1.7485 10.1243 0 7.37522 0C3.60309 0 0.53418 3.29015 0.53418 7.33421C0.53418 11.3783 3.60297 14.6684 7.37522 14.6684C9.08914 14.6684 10.6565 13.9877 11.8582 12.8671C12.2455 13.2717 12.7002 13.6059 13.2047 13.8521C13.8625 14.173 14.5716 14.3278 15.2828 14.3278C16.1081 14.3278 16.9356 14.1189 17.6879 13.7196C17.9648 14.1882 18.3271 14.599 18.7649 14.9319C19.5123 15.5001 20.4081 15.7965 21.3474 15.7965C21.6124 15.7965 21.8808 15.7729 22.1504 15.7251C22.2676 15.7043 22.383 15.678 22.4977 15.6487C22.6453 16.2808 22.9432 16.8654 23.3792 17.3581C24.1192 18.1946 25.1616 18.6687 26.3145 18.693C26.3455 18.6936 26.3762 18.694 26.4071 18.694C26.4264 18.694 26.4456 18.6929 26.4648 18.6927C26.4686 19.4608 26.7048 20.2036 27.1641 20.8358C27.7749 21.6766 28.6978 22.2086 29.7627 22.334C29.9213 22.3527 30.0802 22.3619 30.2388 22.3619C31.1171 22.3619 31.984 22.0782 32.7214 21.5424C33.5922 20.91 34.1843 19.9976 34.3888 18.9733C34.5986 17.9218 34.378 16.8797 33.7672 16.0389ZM7.37522 12.8227C4.62081 12.8227 2.37988 10.3605 2.37988 7.33421C2.37988 4.30787 4.62081 1.8457 7.37522 1.8457C10.1296 1.8457 12.3706 4.30787 12.3706 7.33421C12.3706 10.3605 10.1296 12.8227 7.37522 12.8227ZM21.8283 13.9077C21.1162 14.0337 20.4253 13.8757 19.8818 13.4626C19.5727 13.2275 19.3291 12.922 19.164 12.5673C19.1928 12.5356 19.2223 12.5051 19.2505 12.4726C19.5843 12.0875 19.5427 11.5048 19.1577 11.1708C18.7727 10.8369 18.1898 10.8785 17.8559 11.2636C16.8501 12.4238 15.2703 12.8062 14.014 12.1932C13.6419 12.0117 13.3136 11.7507 13.0478 11.4293C13.7852 10.2592 14.2161 8.84953 14.2161 7.33409C14.2161 6.90441 14.1795 6.48395 14.113 6.07433C15.0513 5.4986 16.1588 5.41578 17.0973 5.87364C18.0921 6.35906 18.726 7.363 18.7929 8.55902C18.8203 9.05034 19.2273 9.43044 19.7134 9.43044C19.7307 9.43044 19.7482 9.42994 19.7657 9.42896C20.1977 9.40484 20.5427 9.08677 20.6199 8.67997C21.5449 8.2023 22.6232 8.25374 23.3953 8.84079C23.9388 9.25399 24.276 9.87771 24.3449 10.5973C24.4164 11.3446 24.1927 12.102 23.715 12.7303C23.2376 13.3587 22.5676 13.7768 21.8283 13.9077ZM26.3534 16.8477C25.7214 16.8343 25.1561 16.5813 24.7614 16.1351C24.4378 15.7693 24.2582 15.3022 24.2394 14.7985C24.59 14.5291 24.9085 14.2106 25.1845 13.8474C25.5633 13.3494 25.8411 12.797 26.0103 12.2183C26.943 11.862 27.972 12.0676 28.581 12.756C28.9757 13.2022 29.158 13.7942 29.0941 14.4231C29.0274 15.0796 28.7042 15.6949 28.1837 16.1553C27.6632 16.6159 27.016 16.8626 26.3534 16.8477ZM32.5787 18.6118C32.4653 19.1797 32.1307 19.6901 31.6364 20.0491C31.1422 20.4082 30.5529 20.5685 29.9782 20.501C29.4308 20.4365 28.9616 20.1702 28.6572 19.7511C28.346 19.3228 28.2422 18.7833 28.3578 18.2399C28.7318 18.0574 29.085 17.8224 29.4065 17.5379C29.7877 17.2006 30.1058 16.8112 30.3524 16.3857C31.1108 16.27 31.8544 16.5464 32.2738 17.1237C32.5784 17.5429 32.6867 18.0714 32.5787 18.6118Z" fill="#319B62"/>
<path d="M29.1327 29.4673C29.028 27.8605 28.3963 26.1146 27.306 24.418C27.0302 23.9892 26.4593 23.8651 26.0307 24.1407C25.6019 24.4163 25.4778 24.9873 25.7534 25.4159C26.6749 26.8498 27.2067 28.2923 27.2911 29.5874C27.5565 33.657 24.4554 50.6696 17.6264 57.9585C15.6394 60.0791 13.5179 61.1543 11.3204 61.1543C9.67752 61.1543 7.84473 60.0687 6.75995 58.4527C5.59272 56.7141 5.41394 54.6225 6.25644 52.563C9.79564 43.9117 8.22519 34.577 6.28437 28.2695C5.40003 25.3954 5.75724 22.7007 7.26444 20.8764C8.84104 18.9679 11.5594 18.1188 14.9192 18.4851C17.8595 18.8059 20.9463 20.3058 23.3879 22.6004C23.7595 22.9495 24.3434 22.9313 24.6925 22.5599C25.0415 22.1886 25.0233 21.6044 24.652 21.2555C21.8842 18.6545 18.4988 17.019 15.1194 16.6503C11.1217 16.2144 7.82689 17.2976 5.8414 19.7009C3.93147 22.0128 3.44986 25.3339 4.52025 28.8124C6.37247 34.8321 7.88078 43.7178 4.54818 51.8643C3.46536 54.511 3.70666 57.2162 5.22752 59.4816C6.66249 61.6189 9.05416 63 11.3204 63C14.0486 63 16.6234 61.7284 18.9731 59.2204C26.2736 51.4283 29.4197 33.8679 29.1327 29.4673Z" fill="#319B62"/>
</svg>
